<svg version="1.1" class="logo-main" xmlns="http://www.w3.org/2000/svg" xmlns:xlink="http://www.w3.org/1999/xlink" x="0px" y="0px" width="100px" height="70px" viewBox="0 0 100 70" enable-background="new 0 0 100 70" xml:space="preserve">
  <path fill="#010101" d="M46.941,14.678C42.52,11.75,26.271,0.991,24.773,0v9.988c0.468,0.302,12.142,7.736,14.79,9.422
    L46.941,14.678z M48.035,15.402L25.843,29.639l6.979,4.622c6.619-4.416,14.905-9.945,15.217-10.153v-8.703L48.035,15.402z"></path>
  <path fill="#010101" d="M6.389,8.231v5.853h13.137v6.032H6.389v12.999H0V1.932h21.145v6.299H6.389z"></path>
  <path fill="#010101" d="M62.569,33.563c-6.66,0-11.067-3.129-12.689-9.473l6.072-1.206c0.901,3.217,3.242,4.602,6.617,4.602
    c2.34,0,5.353-1.206,5.353-3.931c0-5.631-17.05-1.743-17.05-13c0-6.032,5.445-8.981,10.841-8.981c5.716,0,9.27,2.145,11.744,7.147
    l-5.535,2.547c-1.438-2.591-3.059-3.752-6.209-3.752c-1.754,0-4.408,0.804-4.408,3.038c0,4.734,17.05,1.608,17.05,13
    C74.355,29.988,68.509,33.563,62.569,33.563z"></path>
  <path fill="#010101" d="M91.179,8.231v24.884h-6.434V8.231h-8.816V1.932H100v6.299H91.179z"></path>
  <path fill="#010101" d="M24.773,60.718V70c1.717-1.146,22.762-15.184,23.263-15.519v-8.686L24.773,60.718z M46.957,45.062
    c-4.397-2.913-20.684-13.699-22.183-14.692v9.989c0.469,0.303,12.194,7.771,14.807,9.435L46.957,45.062z"></path>
  <path fill="#010101" d="M12.507,55.959H6.433V68.11H0V36.927h12.283c6.208,0,10.708,2.86,10.708,9.516
    C22.991,53.323,19.031,55.959,12.507,55.959z M12.058,43.004H6.433v6.924h5.625c2.519,0,4.498-0.492,4.498-3.485
    C16.556,43.582,14.531,43.004,12.058,43.004z"></path>
  <path fill="#010101" d="M64.801,57.835V68.11h-6.434V57.745L47.929,36.927h7.199l6.48,13.67l6.433-13.67h7.156L64.801,57.835z"></path>
</svg>
